<mxfile host="app.diagrams.net" modified="2022-09-05T10:23:40.568Z" agent="5.0 (Macintosh; Intel Mac OS X 10_15_7) AppleWebKit/537.36 (KHTML, like Gecko) Chrome/104.0.5112.102 Safari/537.36 Edg/104.0.1293.63" etag="dzLYxR7YAkMmNhT0qSuC" version="20.2.3" type="github" pages="2">
  <diagram id="bekV5AanFLV10RUSpf0I" name="Raw">
    <mxGraphModel dx="1186" dy="773" grid="1" gridSize="10" guides="1" tooltips="1" connect="1" arrows="1" fold="1" page="1" pageScale="1" pageWidth="827" pageHeight="1169" math="0" shadow="0">
      <root>
        <mxCell id="0" />
        <mxCell id="1" parent="0" />
        <mxCell id="SHMp--RX3qHysbbsro50-16" style="rounded=0;orthogonalLoop=1;jettySize=auto;html=1;fontFamily=Comic Sans MS;sketch=1;entryX=0.395;entryY=-0.013;entryDx=0;entryDy=0;entryPerimeter=0;" edge="1" parent="1" source="SHMp--RX3qHysbbsro50-2" target="SHMp--RX3qHysbbsro50-8">
          <mxGeometry relative="1" as="geometry" />
        </mxCell>
        <mxCell id="SHMp--RX3qHysbbsro50-49" value="CRUD" style="edgeLabel;html=1;align=center;verticalAlign=middle;resizable=0;points=[];fontSize=12;fontFamily=Comic Sans MS;" vertex="1" connectable="0" parent="SHMp--RX3qHysbbsro50-16">
          <mxGeometry x="-0.16" relative="1" as="geometry">
            <mxPoint as="offset" />
          </mxGeometry>
        </mxCell>
        <mxCell id="SHMp--RX3qHysbbsro50-17" style="rounded=0;sketch=1;orthogonalLoop=1;jettySize=auto;html=1;entryX=0.5;entryY=0;entryDx=0;entryDy=0;entryPerimeter=0;fontFamily=Comic Sans MS;" edge="1" parent="1" source="SHMp--RX3qHysbbsro50-2" target="SHMp--RX3qHysbbsro50-10">
          <mxGeometry relative="1" as="geometry" />
        </mxCell>
        <mxCell id="SHMp--RX3qHysbbsro50-46" value="&lt;font style=&quot;font-size: 12px;&quot;&gt;Init/Create/Update/Get&lt;/font&gt;" style="edgeLabel;html=1;align=center;verticalAlign=middle;resizable=0;points=[];fontSize=15;fontFamily=Comic Sans MS;" vertex="1" connectable="0" parent="SHMp--RX3qHysbbsro50-17">
          <mxGeometry x="-0.1275" y="1" relative="1" as="geometry">
            <mxPoint as="offset" />
          </mxGeometry>
        </mxCell>
        <mxCell id="SHMp--RX3qHysbbsro50-20" style="edgeStyle=none;rounded=0;sketch=1;orthogonalLoop=1;jettySize=auto;html=1;entryX=0.388;entryY=-0.052;entryDx=0;entryDy=0;fontFamily=Comic Sans MS;entryPerimeter=0;" edge="1" parent="1" source="SHMp--RX3qHysbbsro50-2" target="SHMp--RX3qHysbbsro50-4">
          <mxGeometry relative="1" as="geometry" />
        </mxCell>
        <mxCell id="SHMp--RX3qHysbbsro50-53" value="Query" style="edgeLabel;html=1;align=center;verticalAlign=middle;resizable=0;points=[];fontSize=12;fontFamily=Comic Sans MS;" vertex="1" connectable="0" parent="SHMp--RX3qHysbbsro50-20">
          <mxGeometry x="-0.2362" y="-3" relative="1" as="geometry">
            <mxPoint as="offset" />
          </mxGeometry>
        </mxCell>
        <mxCell id="SHMp--RX3qHysbbsro50-2" value="&lt;font face=&quot;Comic Sans MS&quot;&gt;Backoffice&lt;/font&gt;" style="rounded=1;whiteSpace=wrap;html=1;sketch=1;fillColor=#ffe6cc;strokeColor=#d79b00;fillStyle=solid;" vertex="1" parent="1">
          <mxGeometry x="120" y="330" width="120" height="60" as="geometry" />
        </mxCell>
        <mxCell id="SHMp--RX3qHysbbsro50-3" value="" style="shape=image;html=1;verticalAlign=top;verticalLabelPosition=bottom;labelBackgroundColor=#ffffff;imageAspect=0;aspect=fixed;image=https://cdn4.iconfinder.com/data/icons/logos-and-brands/512/97_Docker_logo_logos-128.png;dashed=1;fillColor=none;" vertex="1" parent="1">
          <mxGeometry x="120" y="294.9" width="35.09852024922119" height="35.09852024922119" as="geometry" />
        </mxCell>
        <mxCell id="SHMp--RX3qHysbbsro50-24" style="edgeStyle=none;rounded=0;sketch=1;orthogonalLoop=1;jettySize=auto;html=1;fontFamily=Comic Sans MS;" edge="1" parent="1" source="SHMp--RX3qHysbbsro50-4">
          <mxGeometry relative="1" as="geometry">
            <mxPoint x="930" y="940" as="targetPoint" />
          </mxGeometry>
        </mxCell>
        <mxCell id="SHMp--RX3qHysbbsro50-52" value="CRUD" style="edgeLabel;html=1;align=center;verticalAlign=middle;resizable=0;points=[];fontSize=12;fontFamily=Comic Sans MS;" vertex="1" connectable="0" parent="SHMp--RX3qHysbbsro50-24">
          <mxGeometry x="-0.2531" y="1" relative="1" as="geometry">
            <mxPoint as="offset" />
          </mxGeometry>
        </mxCell>
        <mxCell id="SHMp--RX3qHysbbsro50-25" style="rounded=0;sketch=1;orthogonalLoop=1;jettySize=auto;html=1;fontFamily=Comic Sans MS;entryX=0.5;entryY=0;entryDx=0;entryDy=0;entryPerimeter=0;" edge="1" parent="1" source="SHMp--RX3qHysbbsro50-4" target="SHMp--RX3qHysbbsro50-10">
          <mxGeometry relative="1" as="geometry">
            <mxPoint x="420" y="740" as="targetPoint" />
          </mxGeometry>
        </mxCell>
        <mxCell id="SHMp--RX3qHysbbsro50-48" value="Update/Get" style="edgeLabel;html=1;align=center;verticalAlign=middle;resizable=0;points=[];fontSize=12;fontFamily=Comic Sans MS;" vertex="1" connectable="0" parent="SHMp--RX3qHysbbsro50-25">
          <mxGeometry x="0.0012" y="-80" relative="1" as="geometry">
            <mxPoint x="21" y="77" as="offset" />
          </mxGeometry>
        </mxCell>
        <mxCell id="SHMp--RX3qHysbbsro50-4" value="&lt;font face=&quot;Comic Sans MS&quot;&gt;Identity Service&lt;/font&gt;" style="rounded=1;whiteSpace=wrap;html=1;sketch=1;fillColor=#fa6800;fontColor=#000000;strokeColor=#C73500;fillStyle=solid;" vertex="1" parent="1">
          <mxGeometry x="680" y="545.1" width="120" height="60" as="geometry" />
        </mxCell>
        <mxCell id="SHMp--RX3qHysbbsro50-5" value="" style="shape=image;html=1;verticalAlign=top;verticalLabelPosition=bottom;labelBackgroundColor=#ffffff;imageAspect=0;aspect=fixed;image=https://cdn4.iconfinder.com/data/icons/logos-and-brands/512/97_Docker_logo_logos-128.png;dashed=1;fillColor=none;" vertex="1" parent="1">
          <mxGeometry x="680" y="510" width="35.09852024922119" height="35.09852024922119" as="geometry" />
        </mxCell>
        <mxCell id="SHMp--RX3qHysbbsro50-21" style="edgeStyle=none;rounded=0;sketch=1;orthogonalLoop=1;jettySize=auto;html=1;entryX=0.5;entryY=0;entryDx=0;entryDy=0;fontFamily=Comic Sans MS;" edge="1" parent="1" source="SHMp--RX3qHysbbsro50-6" target="SHMp--RX3qHysbbsro50-4">
          <mxGeometry relative="1" as="geometry" />
        </mxCell>
        <mxCell id="SHMp--RX3qHysbbsro50-59" value="Query/Create/Update" style="edgeLabel;html=1;align=center;verticalAlign=middle;resizable=0;points=[];fontSize=12;fontFamily=Comic Sans MS;" vertex="1" connectable="0" parent="SHMp--RX3qHysbbsro50-21">
          <mxGeometry x="-0.5056" y="2" relative="1" as="geometry">
            <mxPoint as="offset" />
          </mxGeometry>
        </mxCell>
        <mxCell id="SHMp--RX3qHysbbsro50-27" style="edgeStyle=none;rounded=0;sketch=1;orthogonalLoop=1;jettySize=auto;html=1;fontFamily=Comic Sans MS;entryX=0.5;entryY=0;entryDx=0;entryDy=0;entryPerimeter=0;strokeColor=default;" edge="1" parent="1" source="SHMp--RX3qHysbbsro50-6" target="SHMp--RX3qHysbbsro50-8">
          <mxGeometry relative="1" as="geometry">
            <mxPoint x="680" y="890" as="targetPoint" />
          </mxGeometry>
        </mxCell>
        <mxCell id="SHMp--RX3qHysbbsro50-50" value="CRUD" style="edgeLabel;html=1;align=center;verticalAlign=middle;resizable=0;points=[];fontSize=12;fontFamily=Comic Sans MS;" vertex="1" connectable="0" parent="SHMp--RX3qHysbbsro50-27">
          <mxGeometry x="-0.1498" y="-2" relative="1" as="geometry">
            <mxPoint as="offset" />
          </mxGeometry>
        </mxCell>
        <mxCell id="SHMp--RX3qHysbbsro50-6" value="&lt;font face=&quot;Comic Sans MS&quot;&gt;User Service&lt;/font&gt;" style="rounded=1;whiteSpace=wrap;html=1;sketch=1;fillColor=#ffcc99;strokeColor=#36393d;fillStyle=solid;" vertex="1" parent="1">
          <mxGeometry x="294" y="330" width="120" height="60" as="geometry" />
        </mxCell>
        <mxCell id="SHMp--RX3qHysbbsro50-7" value="" style="shape=image;html=1;verticalAlign=top;verticalLabelPosition=bottom;labelBackgroundColor=#ffffff;imageAspect=0;aspect=fixed;image=https://cdn4.iconfinder.com/data/icons/logos-and-brands/512/97_Docker_logo_logos-128.png;dashed=1;fillColor=none;" vertex="1" parent="1">
          <mxGeometry x="294" y="294.9" width="35.09852024922119" height="35.09852024922119" as="geometry" />
        </mxCell>
        <mxCell id="SHMp--RX3qHysbbsro50-8" value="" style="outlineConnect=0;dashed=0;verticalLabelPosition=bottom;verticalAlign=top;align=center;html=1;shape=mxgraph.aws3.rds;fillColor=#2E73B8;gradientColor=none;" vertex="1" parent="1">
          <mxGeometry x="900" y="940" width="67" height="75" as="geometry" />
        </mxCell>
        <mxCell id="SHMp--RX3qHysbbsro50-10" value="" style="outlineConnect=0;dashed=0;verticalLabelPosition=bottom;verticalAlign=top;align=center;html=1;shape=mxgraph.aws3.elasticsearch_service;fillColor=#F58534;gradientColor=none;" vertex="1" parent="1">
          <mxGeometry x="520.2" y="940" width="67.5" height="81" as="geometry" />
        </mxCell>
        <mxCell id="SHMp--RX3qHysbbsro50-11" value="&lt;font face=&quot;Comic Sans MS&quot;&gt;RDS&lt;/font&gt;" style="text;html=1;align=center;verticalAlign=middle;resizable=0;points=[];autosize=1;strokeColor=none;" vertex="1" parent="1">
          <mxGeometry x="908.5" y="1015" width="50" height="30" as="geometry" />
        </mxCell>
        <mxCell id="SHMp--RX3qHysbbsro50-12" value="&lt;font face=&quot;Comic Sans MS&quot;&gt;ES&lt;/font&gt;" style="text;html=1;align=center;verticalAlign=middle;resizable=0;points=[];autosize=1;strokeColor=none;" vertex="1" parent="1">
          <mxGeometry x="533.95" y="1022" width="40" height="30" as="geometry" />
        </mxCell>
        <mxCell id="SHMp--RX3qHysbbsro50-22" style="edgeStyle=none;rounded=0;sketch=1;orthogonalLoop=1;jettySize=auto;html=1;fontFamily=Comic Sans MS;entryX=0.5;entryY=0;entryDx=0;entryDy=0;" edge="1" parent="1" source="SHMp--RX3qHysbbsro50-14" target="SHMp--RX3qHysbbsro50-4">
          <mxGeometry relative="1" as="geometry">
            <mxPoint x="740" y="540" as="targetPoint" />
          </mxGeometry>
        </mxCell>
        <mxCell id="SHMp--RX3qHysbbsro50-60" value="Query/Create/Update" style="edgeLabel;html=1;align=center;verticalAlign=middle;resizable=0;points=[];fontSize=12;fontFamily=Comic Sans MS;" vertex="1" connectable="0" parent="SHMp--RX3qHysbbsro50-22">
          <mxGeometry x="-0.4852" y="4" relative="1" as="geometry">
            <mxPoint x="19" y="-17" as="offset" />
          </mxGeometry>
        </mxCell>
        <mxCell id="SHMp--RX3qHysbbsro50-14" value="&lt;font face=&quot;Comic Sans MS&quot;&gt;Console Service&lt;/font&gt;" style="rounded=1;whiteSpace=wrap;html=1;sketch=1;fillColor=#fff2cc;strokeColor=#d6b656;fillStyle=solid;" vertex="1" parent="1">
          <mxGeometry x="480" y="330" width="120" height="60" as="geometry" />
        </mxCell>
        <mxCell id="SHMp--RX3qHysbbsro50-15" value="" style="shape=image;html=1;verticalAlign=top;verticalLabelPosition=bottom;labelBackgroundColor=#ffffff;imageAspect=0;aspect=fixed;image=https://cdn4.iconfinder.com/data/icons/logos-and-brands/512/97_Docker_logo_logos-128.png;dashed=1;fillColor=none;" vertex="1" parent="1">
          <mxGeometry x="480" y="294.9" width="35.09852024922119" height="35.09852024922119" as="geometry" />
        </mxCell>
        <mxCell id="SHMp--RX3qHysbbsro50-41" style="edgeStyle=none;rounded=0;sketch=1;orthogonalLoop=1;jettySize=auto;html=1;entryX=0.5;entryY=0;entryDx=0;entryDy=0;fontFamily=Comic Sans MS;fontSize=15;" edge="1" parent="1" source="SHMp--RX3qHysbbsro50-30" target="SHMp--RX3qHysbbsro50-4">
          <mxGeometry relative="1" as="geometry" />
        </mxCell>
        <mxCell id="SHMp--RX3qHysbbsro50-62" value="Query" style="edgeLabel;html=1;align=center;verticalAlign=middle;resizable=0;points=[];fontSize=12;fontFamily=Comic Sans MS;" vertex="1" connectable="0" parent="SHMp--RX3qHysbbsro50-41">
          <mxGeometry x="-0.344" y="-2" relative="1" as="geometry">
            <mxPoint as="offset" />
          </mxGeometry>
        </mxCell>
        <mxCell id="SHMp--RX3qHysbbsro50-30" value="&lt;font face=&quot;Comic Sans MS&quot;&gt;Analytics Service&lt;/font&gt;" style="rounded=1;whiteSpace=wrap;html=1;sketch=1;fillColor=#dae8fc;strokeColor=#6c8ebf;fillStyle=solid;" vertex="1" parent="1">
          <mxGeometry x="840" y="330" width="120" height="60" as="geometry" />
        </mxCell>
        <mxCell id="SHMp--RX3qHysbbsro50-31" value="" style="shape=image;html=1;verticalAlign=top;verticalLabelPosition=bottom;labelBackgroundColor=#ffffff;imageAspect=0;aspect=fixed;image=https://cdn4.iconfinder.com/data/icons/logos-and-brands/512/97_Docker_logo_logos-128.png;dashed=1;fillColor=none;" vertex="1" parent="1">
          <mxGeometry x="840" y="294.9" width="35.09852024922119" height="35.09852024922119" as="geometry" />
        </mxCell>
        <mxCell id="SHMp--RX3qHysbbsro50-42" style="edgeStyle=none;rounded=0;sketch=1;orthogonalLoop=1;jettySize=auto;html=1;fontFamily=Comic Sans MS;fontSize=15;" edge="1" parent="1" source="SHMp--RX3qHysbbsro50-32">
          <mxGeometry relative="1" as="geometry">
            <mxPoint x="750" y="540" as="targetPoint" />
          </mxGeometry>
        </mxCell>
        <mxCell id="SHMp--RX3qHysbbsro50-63" value="Query" style="edgeLabel;html=1;align=center;verticalAlign=middle;resizable=0;points=[];fontSize=12;fontFamily=Comic Sans MS;" vertex="1" connectable="0" parent="SHMp--RX3qHysbbsro50-42">
          <mxGeometry x="-0.2558" relative="1" as="geometry">
            <mxPoint y="-1" as="offset" />
          </mxGeometry>
        </mxCell>
        <mxCell id="SHMp--RX3qHysbbsro50-32" value="&lt;font face=&quot;Comic Sans MS&quot;&gt;Eureka Service&lt;/font&gt;" style="rounded=1;whiteSpace=wrap;html=1;sketch=1;fillColor=#dae8fc;strokeColor=#6c8ebf;fillStyle=solid;" vertex="1" parent="1">
          <mxGeometry x="1019.9999999999999" y="330" width="120" height="60" as="geometry" />
        </mxCell>
        <mxCell id="SHMp--RX3qHysbbsro50-33" value="" style="shape=image;html=1;verticalAlign=top;verticalLabelPosition=bottom;labelBackgroundColor=#ffffff;imageAspect=0;aspect=fixed;image=https://cdn4.iconfinder.com/data/icons/logos-and-brands/512/97_Docker_logo_logos-128.png;dashed=1;fillColor=none;" vertex="1" parent="1">
          <mxGeometry x="1019.9999999999999" y="294.9" width="35.09852024922119" height="35.09852024922119" as="geometry" />
        </mxCell>
        <mxCell id="SHMp--RX3qHysbbsro50-36" value="&lt;font style=&quot;font-size: 15px;&quot;&gt;...&lt;/font&gt;" style="text;html=1;align=center;verticalAlign=middle;resizable=0;points=[];autosize=1;strokeColor=none;fillColor=none;fontFamily=Comic Sans MS;sketch=1;" vertex="1" parent="1">
          <mxGeometry x="1170" y="345" width="30" height="30" as="geometry" />
        </mxCell>
        <mxCell id="SHMp--RX3qHysbbsro50-44" style="edgeStyle=none;rounded=0;sketch=1;orthogonalLoop=1;jettySize=auto;html=1;fontFamily=Comic Sans MS;fontSize=15;" edge="1" parent="1" source="SHMp--RX3qHysbbsro50-37">
          <mxGeometry relative="1" as="geometry">
            <mxPoint x="770" y="540" as="targetPoint" />
          </mxGeometry>
        </mxCell>
        <mxCell id="SHMp--RX3qHysbbsro50-64" value="Query" style="edgeLabel;html=1;align=center;verticalAlign=middle;resizable=0;points=[];fontSize=12;fontFamily=Comic Sans MS;" vertex="1" connectable="0" parent="SHMp--RX3qHysbbsro50-44">
          <mxGeometry x="0.1342" y="-4" relative="1" as="geometry">
            <mxPoint as="offset" />
          </mxGeometry>
        </mxCell>
        <mxCell id="SHMp--RX3qHysbbsro50-37" value="&lt;font face=&quot;Comic Sans MS&quot;&gt;Discovery Service&lt;/font&gt;" style="rounded=1;whiteSpace=wrap;html=1;sketch=1;fillColor=#dae8fc;strokeColor=#6c8ebf;fillStyle=solid;" vertex="1" parent="1">
          <mxGeometry x="1225" y="330" width="120" height="60" as="geometry" />
        </mxCell>
        <mxCell id="SHMp--RX3qHysbbsro50-38" value="" style="shape=image;html=1;verticalAlign=top;verticalLabelPosition=bottom;labelBackgroundColor=#ffffff;imageAspect=0;aspect=fixed;image=https://cdn4.iconfinder.com/data/icons/logos-and-brands/512/97_Docker_logo_logos-128.png;dashed=1;fillColor=none;" vertex="1" parent="1">
          <mxGeometry x="1225" y="294.9" width="35.09852024922119" height="35.09852024922119" as="geometry" />
        </mxCell>
        <mxCell id="SHMp--RX3qHysbbsro50-45" style="edgeStyle=none;rounded=0;sketch=1;orthogonalLoop=1;jettySize=auto;html=1;entryX=1;entryY=0;entryDx=0;entryDy=0;fontFamily=Comic Sans MS;fontSize=15;" edge="1" parent="1" source="SHMp--RX3qHysbbsro50-39" target="SHMp--RX3qHysbbsro50-4">
          <mxGeometry relative="1" as="geometry" />
        </mxCell>
        <mxCell id="SHMp--RX3qHysbbsro50-65" value="Query" style="edgeLabel;html=1;align=center;verticalAlign=middle;resizable=0;points=[];fontSize=12;fontFamily=Comic Sans MS;" vertex="1" connectable="0" parent="SHMp--RX3qHysbbsro50-45">
          <mxGeometry x="0.2213" y="-2" relative="1" as="geometry">
            <mxPoint as="offset" />
          </mxGeometry>
        </mxCell>
        <mxCell id="SHMp--RX3qHysbbsro50-39" value="&lt;font face=&quot;Comic Sans MS&quot;&gt;Pharmsnap Service&lt;/font&gt;" style="rounded=1;whiteSpace=wrap;html=1;sketch=1;fillColor=#dae8fc;strokeColor=#6c8ebf;fillStyle=solid;" vertex="1" parent="1">
          <mxGeometry x="1410" y="332.55" width="120" height="60" as="geometry" />
        </mxCell>
        <mxCell id="SHMp--RX3qHysbbsro50-40" value="" style="shape=image;html=1;verticalAlign=top;verticalLabelPosition=bottom;labelBackgroundColor=#ffffff;imageAspect=0;aspect=fixed;image=https://cdn4.iconfinder.com/data/icons/logos-and-brands/512/97_Docker_logo_logos-128.png;dashed=1;fillColor=none;" vertex="1" parent="1">
          <mxGeometry x="1410" y="297.45" width="35.09852024922119" height="35.09852024922119" as="geometry" />
        </mxCell>
        <mxCell id="SHMp--RX3qHysbbsro50-58" style="rounded=0;sketch=1;orthogonalLoop=1;jettySize=auto;html=1;fontFamily=Comic Sans MS;fontSize=12;" edge="1" parent="1" source="SHMp--RX3qHysbbsro50-54">
          <mxGeometry relative="1" as="geometry">
            <mxPoint x="740" y="540" as="targetPoint" />
          </mxGeometry>
        </mxCell>
        <mxCell id="SHMp--RX3qHysbbsro50-61" value="Query/Create/Update" style="edgeLabel;html=1;align=center;verticalAlign=middle;resizable=0;points=[];fontSize=12;fontFamily=Comic Sans MS;" vertex="1" connectable="0" parent="SHMp--RX3qHysbbsro50-58">
          <mxGeometry x="-0.3777" y="3" relative="1" as="geometry">
            <mxPoint as="offset" />
          </mxGeometry>
        </mxCell>
        <mxCell id="SHMp--RX3qHysbbsro50-54" value="&lt;font face=&quot;Comic Sans MS&quot;&gt;Passport&lt;/font&gt;" style="rounded=1;whiteSpace=wrap;html=1;sketch=1;fillColor=#ffcc99;strokeColor=#36393d;fillStyle=solid;" vertex="1" parent="1">
          <mxGeometry x="650" y="330" width="120" height="60" as="geometry" />
        </mxCell>
        <mxCell id="SHMp--RX3qHysbbsro50-55" value="" style="shape=image;html=1;verticalAlign=top;verticalLabelPosition=bottom;labelBackgroundColor=#ffffff;imageAspect=0;aspect=fixed;image=https://cdn4.iconfinder.com/data/icons/logos-and-brands/512/97_Docker_logo_logos-128.png;dashed=1;fillColor=none;" vertex="1" parent="1">
          <mxGeometry x="650" y="294.9" width="35.09852024922119" height="35.09852024922119" as="geometry" />
        </mxCell>
        <mxCell id="SHMp--RX3qHysbbsro50-56" value="" style="shape=image;verticalLabelPosition=bottom;labelBackgroundColor=#ffffff;verticalAlign=top;aspect=fixed;imageAspect=0;image=data:image/png,iVBORw0KGgoAAAANSUhEUgAAAZAAAAGQCAMAAAC3Ycb+AAACLlBMVEVMaXFBuINBuIM8enI/nnxBuINBuINBuIM8enJBuIM8enJBuINBuINBuIM8enJBuIM8enJBuINBuIM7eXFBuINBuIM8eXFBuINBuIM8eHFBuIM8eXFBuIM8eHBBuIM8eHBBuIM8d3BBuINBuIM8d3BBuINBuINBuIM8dnBBuINBuIM8dnBBuINBuIM7dXBBuINBuIM8dG9BuINBuIM8dG9BuIM8dG9BuINBuIM8c29BuINBuIM7cm5BuINBuIM7cW5BuIM7cW9BuINBuINBuIM7cW5BuINBuINBuIM7b21BuINBuIM6b21BuIM7bm1BuINBuIM7bW1BuINBuIM6bGxBuINBuIM6a2xBuIM6a2xBuINBuIM6amxBuIM6aWtBuINBuIM6aGpBuINBuIM6ZmpBuINBuIM5ZGlBuIM5Y2lBuINBuIM5YWhBuINBuIM5YGdBuIM4XmdBuINBuIM4XGZBuINBuIM4WmVBuIM3WGRBuIM3V2RBuINBuIM3VGNBuIM2UmI2UGFBuIM1TWA1SV41Sl41S141TF81TWA2T2A2UWE2U2I3VWM3WGQ4W2U4Xmc5YGc5YWg5ZGk6Zmo6Z2o6aGo6a2w7bW07bm07cG48c287dnA7eHA8enI8fHI9fnM8gXM9g3Q9hnU9iXY+i3c+jHc+j3g+kXk+lHo/l3o/mXs+m3s/nnw/oH0/o31Apn5BqH5Aqn9BrH9BroBBr4BCsYBBs4FBtoJCt4JBuIP7mHZoAAAAhHRSTlMAAQICAwQHCAgLDQ4QEhIVFhcaGh4hIiUoKissLzEzNDc4Oj4/QERFRkhLTVBTVldaXV5iYmZnaW1vcHV3eHx8gIGDhIeJio+Sk5aZm52foaWmqKyusLS1t7m6u7y/wMLHx8zP0NPW1trc3uLi5Obn6urt7+/y8/T29vf4+vv7/P39/v7L5yYnAAAKeElEQVR42uzBgQAAAADDoPtTH2TVAAAAAAAAAAAAAMg6NfegXmu6BVG4tm3btm3btm1bM3bOtm17Xt1pu5OlkfT3v7cxnqp1zio0SFovlZleaQYp/O6odWp90VGv0wxyWGXmsEHSXjvqYmtplrNuGGWKysgUo9xw1ixJ9Q456kOWQc7WVJmoedYgWR8cdaieJI101gOjrFCZWGGU+84aqZ9U2eqob3kGudRG4rW5ZJC8b47aWkU/6+Gs50bZIfF2GOW5s3roV0ud9T+jDBZusFGKnbVUv2l22lFv0w1yrJJglY4ZJP2to0430++mOuuWUWYLNtsot5w1VX+otd9Rn3MMcr6RUI3OGyT7s6P219KfDHLWI6NsEGqDUR45a5D+rOJGR33LN0hGZ4E6Zxgk/5ujNlbUX3R01kuj7BNon1FeOquj/ma+s64aZbQwo41y1Vnz9XcNjzvqfaZBTlUXpPopg2S+d9TxhvqHsc66a5TFgiw2yl1njdU/VdvpqK+5BslqKkTTLIPkfnHUzmr6F32c9dQo24TYZpSnzuqjf7XGWUUGSesrQN80gxQ5a43+XetzjnoTVs0Nttuea60SzIx+zY1it52pktSBa+5HrubWVYrqct32I9xt66hEw4OtuauVotVGeeCs4SpZuDU3s51S0i4z1G67pYpK0S3YmrtbKdkdbLftqlItcdZlowxVCoYa5bKzlqh0TeCa+y7DICeqKGlVThgk4x3cbZsohsnOum2UuUraXKPcdtZkxVJrL1xzsw1yoZGS1OhCqN12bw3FNDA6NTf63XagYquw3lHfCwyS3l1J6Z5ukILvjlpfQXFo76xXRjmgpBwwyitntVdc5jnrmlHGKQnjjHLNWfMUn4ZHAxgoADWX7rZZcLc92lBxGuOse3zN/S+67T1njVG8qoZbc1soQS24bvsV7rZVFbfeznrG19zod9veSsAqZxXzNbe8u22xs1YqES3DrbmVlIBKXLd9A3fblkrIdGfdNMoMJWCGUW46a7oSU+egoz5lG+R8XcWtLjc++OSog3WUoGHB1ty1itvaYLvtMCWqypZgBwodFKcOwY4PtlRWwro460X519zdRnnhrC5KwiJnXTHKCMVlhFGuOGuRktHkZLRrbrjd9mQTJWWSs+4YZYHisCDYbjtRyamxx1FfcrCa21QxNcW6bc4XR+2poST1d9Zjo2xWTJuN8thZ/ZW44GtuL8XQK+Rum7S2wd7NHSi3bpsGd9uLbZWCOc66bpQJKtUEo1x31hylosGRaN7NhXsad6SBUjLKWfeNskylWBZstx2l1FTdDtfcPINktVKJWmUZJA/utturKkU9g625O8rjNO6Zs3oqZcuDrbkDVIIBwXbb5Upd8zNRu5sL9zTuTHMBpgV7Nzcjat12mgi19wdbc+vrX9QPttvuryXEEGc9LNuBwgajPHTWEDEqborS3Vy4p3GbKgrSKUp3c7uDPY3rJMzCYO/mRkSn2y4Up/FxuubSAwV+fEB32+ONBRoffs2lu+0dZ40XqdouR32B7+bCP43bVU2ofs56wtdctts+cVY/sX5g7w4wAoECKIoaALPuwRACIZIgEATR7trEw/ndf7fxeOcPjof52Nc4Hg/zsa9tPB7mY1/bfDzMx76m+XiYj31t8/EwH/ua5uNhPva1zMfDfOxrmY+H+djXNB8POwP7WjfHw3Zrro99TfPxMB/7mubjYT72tc3Hw3zsa5uPh/nY1zQfD/Oxr20+HuZjX9N8PMzHvrb5eJiPfU3z8TAf+9rm42E+9rXNx8N87Guaj4f52Nc2Hw/zsa/AmtvabX08zMe+9vl4mI997fPxMB/7muXjYT72NcjHw1jsa7/bHoyH+djXPvpuzj+N2+bjYT72tc3Hw3zsa5qPh/nY1zYfD/Oxr2k+HuZjX9t8PMzHvqb5eJiPfW3z8TAf+9rm42E+9jXKx8N87GuQj4f52NcgHw/zsa9BPh4GY19AAB7mYF9AAB4GYV9AAB7mYF9AAB4GYV9AAB6GY193zQ3sthIeBmNfQAAe5mBfQAAeBmFfQAAe5mBfQAAeBmFfQAAe5mBfQAAe5mBfQAAeBmFfQAAe5mBfQAAeBmFfQAAe5mBfQAAeBmFfQAAe5mBfQAAe5mBfQAAeBmFfQAAe5mBfQAAeBmFfQAAepmNfg3w8bNDjN459hfCwM7CvEh52AvaVwsNOwb58PGzWG4V93bs5/zSuhYf52FcLD/Oxrxge5mNfLTzMx75ieJiPfbXwMB/7iuFhPvbVwsN87KuFh/nYVwwP87GvFh7mY18xPOzhy8e+UniYj3218DAf+2rhYT72FcPDfOyrhYf52FcAD0Owr7vm3t3Wx8N87KuFh/nYVwsP87GvGB7mY18tPMzHvgJ4mIt93bs5/zQuhof52FcLD/OxrxYe9v/Tx75SeJiPfbXwMB/7+j142HsO+/LxsBj25eNhNezLx8Ni2JePh9WwLx8Pi2FfPh5Ww758PKyGffl4WAz78vGw87GvCB724mNfATwsgH35eJiGfd019+62Ph7278PHvlJ4mI99ZfCwAPbl42GvNezLx8Nq2JePh9WwLx8Pi2FfPh7Wwr58POzZxr78/u7xsBj25eNhMezLx8Ni2JePhx2IfQXwsCcf+0rhYT72FcPDfOyrhYf52FcMD8OxL781HuZjXzE8zMe+aniYj33F8DAf+yrhYRj2de/m7mmciIf52FcND/Oxrxge5mNfDTwMw77umnt3WxcP87GvGB7mY181PMzHvkp4mI99BfCwn/bu6UoSAACi6CqPtW2NbZtxdnaTRON93JdGnVMX9tXCw2BfMTwM9tXCw2BfLTwM9hXDw2BfLTwM9hXDw2BfUTwM9pVec+22Q+jVYAjFsC94WAv7gofFsC94WAv7gofFsC94WAD7cjfnNK6Ch8G+WngY7CuGh8G+WngY7CuJh/WxL3gY7GvYXQyGUAD7gofBvgJ4GOyrhof1sS94GOxr2D0aAh4WwL7gYbCvBh7Wx77gYbCvYbcwGEIB7AseFsC+4GGwr8Caa7dt4GGwrxYeBvuK4WGwrxYeBvuK4WGwrxYeBvtq4WGwrxgeBvuq4WGwr8DdnNO4Kh4G+4rhYbCvFh4G+2rhYbCvHh7Wx77gYX3sCx7Wx77gYbCvYXcL+6rhYS3sS5uwrzAeFsC+9K+Gfbmba53G6W0M+9IJ7KuGh7WwL63UsC9rbmu31XfYVw0Pa2FfehbDvrRXw77gYS3sSzM17Ase1sK+9DGGfem6hn3Bw1rYlzZq2Bc8rIV96U8Y+7Lm2m0DvYphXzquYV/wsBb2paUa9gUPa2Ff+hbGvtzNOY0L9AT2FWsX9hXGw2BfgaZhX2E8DPYV6APsK9YF7CuMh8G+Aq3BvsJ4GOwr0G/YVxgPg30Fegn7inUI+wrjYbCvQAuwrzAeBvsK9AX21V9z7bYZPAz2FWgb9hXGw2Bfgf7DvsJ4GOwr0DvYV6wz2FcXD4N9FVqFfVXv5pzGNfrZxL7gYbCvSs9hX7EOetgXPAz2VWquhn3Bw2BfrT7DviRJkiRJkiRJkiRJkiRJkiQNszucKAuToL+DiQAAAABJRU5ErkJggg==;" vertex="1" parent="1">
          <mxGeometry x="212.75" y="330.0000000000001" width="30" height="30" as="geometry" />
        </mxCell>
        <mxCell id="SHMp--RX3qHysbbsro50-57" value="" style="shape=image;verticalLabelPosition=bottom;labelBackgroundColor=#ffffff;verticalAlign=top;aspect=fixed;imageAspect=0;image=data:image/png,iVBORw0KGgoAAAANSUhEUgAAAZAAAAGQCAMAAAC3Ycb+AAACLlBMVEVMaXFBuINBuIM8enI/nnxBuINBuINBuIM8enJBuIM8enJBuINBuINBuIM8enJBuIM8enJBuINBuIM7eXFBuINBuIM8eXFBuINBuIM8eHFBuIM8eXFBuIM8eHBBuIM8eHBBuIM8d3BBuINBuIM8d3BBuINBuINBuIM8dnBBuINBuIM8dnBBuINBuIM7dXBBuINBuIM8dG9BuINBuIM8dG9BuIM8dG9BuINBuIM8c29BuINBuIM7cm5BuINBuIM7cW5BuIM7cW9BuINBuINBuIM7cW5BuINBuINBuIM7b21BuINBuIM6b21BuIM7bm1BuINBuIM7bW1BuINBuIM6bGxBuINBuIM6a2xBuIM6a2xBuINBuIM6amxBuIM6aWtBuINBuIM6aGpBuINBuIM6ZmpBuINBuIM5ZGlBuIM5Y2lBuINBuIM5YWhBuINBuIM5YGdBuIM4XmdBuINBuIM4XGZBuINBuIM4WmVBuIM3WGRBuIM3V2RBuINBuIM3VGNBuIM2UmI2UGFBuIM1TWA1SV41Sl41S141TF81TWA2T2A2UWE2U2I3VWM3WGQ4W2U4Xmc5YGc5YWg5ZGk6Zmo6Z2o6aGo6a2w7bW07bm07cG48c287dnA7eHA8enI8fHI9fnM8gXM9g3Q9hnU9iXY+i3c+jHc+j3g+kXk+lHo/l3o/mXs+m3s/nnw/oH0/o31Apn5BqH5Aqn9BrH9BroBBr4BCsYBBs4FBtoJCt4JBuIP7mHZoAAAAhHRSTlMAAQICAwQHCAgLDQ4QEhIVFhcaGh4hIiUoKissLzEzNDc4Oj4/QERFRkhLTVBTVldaXV5iYmZnaW1vcHV3eHx8gIGDhIeJio+Sk5aZm52foaWmqKyusLS1t7m6u7y/wMLHx8zP0NPW1trc3uLi5Obn6urt7+/y8/T29vf4+vv7/P39/v7L5yYnAAAKeElEQVR42uzBgQAAAADDoPtTH2TVAAAAAAAAAAAAAMg6NfegXmu6BVG4tm3btm3btm1bM3bOtm17Xt1pu5OlkfT3v7cxnqp1zio0SFovlZleaQYp/O6odWp90VGv0wxyWGXmsEHSXjvqYmtplrNuGGWKysgUo9xw1ixJ9Q456kOWQc7WVJmoedYgWR8cdaieJI101gOjrFCZWGGU+84aqZ9U2eqob3kGudRG4rW5ZJC8b47aWkU/6+Gs50bZIfF2GOW5s3roV0ud9T+jDBZusFGKnbVUv2l22lFv0w1yrJJglY4ZJP2to0430++mOuuWUWYLNtsot5w1VX+otd9Rn3MMcr6RUI3OGyT7s6P219KfDHLWI6NsEGqDUR45a5D+rOJGR33LN0hGZ4E6Zxgk/5ujNlbUX3R01kuj7BNon1FeOquj/ma+s64aZbQwo41y1Vnz9XcNjzvqfaZBTlUXpPopg2S+d9TxhvqHsc66a5TFgiw2yl1njdU/VdvpqK+5BslqKkTTLIPkfnHUzmr6F32c9dQo24TYZpSnzuqjf7XGWUUGSesrQN80gxQ5a43+XetzjnoTVs0Nttuea60SzIx+zY1it52pktSBa+5HrubWVYrqct32I9xt66hEw4OtuauVotVGeeCs4SpZuDU3s51S0i4z1G67pYpK0S3YmrtbKdkdbLftqlItcdZlowxVCoYa5bKzlqh0TeCa+y7DICeqKGlVThgk4x3cbZsohsnOum2UuUraXKPcdtZkxVJrL1xzsw1yoZGS1OhCqN12bw3FNDA6NTf63XagYquw3lHfCwyS3l1J6Z5ukILvjlpfQXFo76xXRjmgpBwwyitntVdc5jnrmlHGKQnjjHLNWfMUn4ZHAxgoADWX7rZZcLc92lBxGuOse3zN/S+67T1njVG8qoZbc1soQS24bvsV7rZVFbfeznrG19zod9veSsAqZxXzNbe8u22xs1YqES3DrbmVlIBKXLd9A3fblkrIdGfdNMoMJWCGUW46a7oSU+egoz5lG+R8XcWtLjc++OSog3WUoGHB1ty1itvaYLvtMCWqypZgBwodFKcOwY4PtlRWwro460X519zdRnnhrC5KwiJnXTHKCMVlhFGuOGuRktHkZLRrbrjd9mQTJWWSs+4YZYHisCDYbjtRyamxx1FfcrCa21QxNcW6bc4XR+2poST1d9Zjo2xWTJuN8thZ/ZW44GtuL8XQK+Rum7S2wd7NHSi3bpsGd9uLbZWCOc66bpQJKtUEo1x31hylosGRaN7NhXsad6SBUjLKWfeNskylWBZstx2l1FTdDtfcPINktVKJWmUZJA/utturKkU9g625O8rjNO6Zs3oqZcuDrbkDVIIBwXbb5Upd8zNRu5sL9zTuTHMBpgV7Nzcjat12mgi19wdbc+vrX9QPttvuryXEEGc9LNuBwgajPHTWEDEqborS3Vy4p3GbKgrSKUp3c7uDPY3rJMzCYO/mRkSn2y4Up/FxuubSAwV+fEB32+ONBRoffs2lu+0dZ40XqdouR32B7+bCP43bVU2ofs56wtdctts+cVY/sX5g7w4wAoECKIoaALPuwRACIZIgEATR7trEw/ndf7fxeOcPjof52Nc4Hg/zsa9tPB7mY1/bfDzMx76m+XiYj31t8/EwH/ua5uNhPva1zMfDfOxrmY+H+djXNB8POwP7WjfHw3Zrro99TfPxMB/7mubjYT72tc3Hw3zsa5uPh/nY1zQfD/Oxr20+HuZjX9N8PMzHvrb5eJiPfU3z8TAf+9rm42E+9rXNx8N87Guaj4f52Nc2Hw/zsa/AmtvabX08zMe+9vl4mI997fPxMB/7muXjYT72NcjHw1jsa7/bHoyH+djXPvpuzj+N2+bjYT72tc3Hw3zsa5qPh/nY1zYfD/Oxr2k+HuZjX9t8PMzHvqb5eJiPfW3z8TAf+9rm42E+9jXKx8N87GuQj4f52NcgHw/zsa9BPh4GY19AAB7mYF9AAB4GYV9AAB7mYF9AAB4GYV9AAB6GY193zQ3sthIeBmNfQAAe5mBfQAAeBmFfQAAe5mBfQAAeBmFfQAAe5mBfQAAe5mBfQAAeBmFfQAAe5mBfQAAeBmFfQAAe5mBfQAAeBmFfQAAe5mBfQAAe5mBfQAAeBmFfQAAe5mBfQAAeBmFfQAAepmNfg3w8bNDjN459hfCwM7CvEh52AvaVwsNOwb58PGzWG4V93bs5/zSuhYf52FcLD/Oxrxge5mNfLTzMx75ieJiPfbXwMB/7iuFhPvbVwsN87KuFh/nYVwwP87GvFh7mY18xPOzhy8e+UniYj3218DAf+2rhYT72FcPDfOyrhYf52FcAD0Owr7vm3t3Wx8N87KuFh/nYVwsP87GvGB7mY18tPMzHvgJ4mIt93bs5/zQuhof52FcLD/OxrxYe9v/Tx75SeJiPfbXwMB/7+j142HsO+/LxsBj25eNhNezLx8Ni2JePh9WwLx8Pi2FfPh5Ww758PKyGffl4WAz78vGw87GvCB724mNfATwsgH35eJiGfd019+62Ph7278PHvlJ4mI99ZfCwAPbl42GvNezLx8Nq2JePh9WwLx8Pi2FfPh7Wwr58POzZxr78/u7xsBj25eNhMezLx8Ni2JePhx2IfQXwsCcf+0rhYT72FcPDfOyrhYf52FcMD8OxL781HuZjXzE8zMe+aniYj33F8DAf+yrhYRj2de/m7mmciIf52FcND/Oxrxge5mNfDTwMw77umnt3WxcP87GvGB7mY181PMzHvkp4mI99BfCwn/bu6UoSAACi6CqPtW2NbZtxdnaTRON93JdGnVMX9tXCw2BfMTwM9tXCw2BfLTwM9hXDw2BfLTwM9hXDw2BfUTwM9pVec+22Q+jVYAjFsC94WAv7gofFsC94WAv7gofFsC94WAD7cjfnNK6Ch8G+WngY7CuGh8G+WngY7CuJh/WxL3gY7GvYXQyGUAD7gofBvgJ4GOyrhof1sS94GOxr2D0aAh4WwL7gYbCvBh7Wx77gYbCvYbcwGEIB7AseFsC+4GGwr8Caa7dt4GGwrxYeBvuK4WGwrxYeBvuK4WGwrxYeBvtq4WGwrxgeBvuq4WGwr8DdnNO4Kh4G+4rhYbCvFh4G+2rhYbCvHh7Wx77gYX3sCx7Wx77gYbCvYXcL+6rhYS3sS5uwrzAeFsC+9K+Gfbmba53G6W0M+9IJ7KuGh7WwL63UsC9rbmu31XfYVw0Pa2FfehbDvrRXw77gYS3sSzM17Ase1sK+9DGGfem6hn3Bw1rYlzZq2Bc8rIV96U8Y+7Lm2m0DvYphXzquYV/wsBb2paUa9gUPa2Ff+hbGvtzNOY0L9AT2FWsX9hXGw2BfgaZhX2E8DPYV6APsK9YF7CuMh8G+Aq3BvsJ4GOwr0G/YVxgPg30Fegn7inUI+wrjYbCvQAuwrzAeBvsK9AX21V9z7bYZPAz2FWgb9hXGw2Bfgf7DvsJ4GOwr0DvYV6wz2FcXD4N9FVqFfVXv5pzGNfrZxL7gYbCvSs9hX7EOetgXPAz2VWquhn3Bw2BfrT7DviRJkiRJkiRJkiRJkiRJkiQNszucKAuToL+DiQAAAABJRU5ErkJggg==;" vertex="1" parent="1">
          <mxGeometry x="740" y="330.0000000000001" width="30" height="30" as="geometry" />
        </mxCell>
        <mxCell id="SHMp--RX3qHysbbsro50-66" value="&lt;ol&gt;&lt;li&gt;Authentication&lt;/li&gt;&lt;li&gt;Session Management&lt;/li&gt;&lt;li&gt;Account/Tenant/Authorization info&lt;/li&gt;&lt;li&gt;Console Business：User Management;Group Management;Case-Timer Management&lt;/li&gt;&lt;li&gt;Capacity Management&lt;/li&gt;&lt;li&gt;OpenApi Business&lt;/li&gt;&lt;/ol&gt;" style="shape=note;whiteSpace=wrap;html=1;backgroundOutline=1;darkOpacity=0.05;sketch=1;fontFamily=Comic Sans MS;fontSize=12;align=left;fillColor=#eeeeee;strokeColor=#36393d;fillStyle=solid;" vertex="1" parent="1">
          <mxGeometry x="1040" y="605.1" width="260" height="204.9" as="geometry" />
        </mxCell>
        <mxCell id="SHMp--RX3qHysbbsro50-68" value="" style="endArrow=none;dashed=1;html=1;rounded=0;sketch=1;fontFamily=Comic Sans MS;fontSize=12;strokeColor=default;entryX=1;entryY=0.75;entryDx=0;entryDy=0;" edge="1" parent="1" source="SHMp--RX3qHysbbsro50-66" target="SHMp--RX3qHysbbsro50-4">
          <mxGeometry width="50" height="50" relative="1" as="geometry">
            <mxPoint x="1030" y="690" as="sourcePoint" />
            <mxPoint x="750" y="610" as="targetPoint" />
          </mxGeometry>
        </mxCell>
      </root>
    </mxGraphModel>
  </diagram>
  <diagram id="qAwkoaUyVYa4baH0zuDM" name="New">
    <mxGraphModel dx="1186" dy="773" grid="1" gridSize="10" guides="1" tooltips="1" connect="1" arrows="1" fold="1" page="1" pageScale="1" pageWidth="827" pageHeight="1169" math="0" shadow="0">
      <root>
        <mxCell id="0" />
        <mxCell id="1" parent="0" />
        <mxCell id="nZ4nalmmB0AYQeb8z7_N-1" style="rounded=0;orthogonalLoop=1;jettySize=auto;html=1;fontFamily=Comic Sans MS;sketch=1;entryX=0.395;entryY=-0.013;entryDx=0;entryDy=0;entryPerimeter=0;" edge="1" parent="1" source="nZ4nalmmB0AYQeb8z7_N-7" target="nZ4nalmmB0AYQeb8z7_N-21">
          <mxGeometry relative="1" as="geometry" />
        </mxCell>
        <mxCell id="nZ4nalmmB0AYQeb8z7_N-2" value="CRUD" style="edgeLabel;html=1;align=center;verticalAlign=middle;resizable=0;points=[];fontSize=12;fontFamily=Comic Sans MS;" vertex="1" connectable="0" parent="nZ4nalmmB0AYQeb8z7_N-1">
          <mxGeometry x="-0.16" relative="1" as="geometry">
            <mxPoint as="offset" />
          </mxGeometry>
        </mxCell>
        <mxCell id="nZ4nalmmB0AYQeb8z7_N-3" style="rounded=0;sketch=1;orthogonalLoop=1;jettySize=auto;html=1;entryX=0.5;entryY=0;entryDx=0;entryDy=0;entryPerimeter=0;fontFamily=Comic Sans MS;" edge="1" parent="1" source="nZ4nalmmB0AYQeb8z7_N-7" target="nZ4nalmmB0AYQeb8z7_N-22">
          <mxGeometry relative="1" as="geometry" />
        </mxCell>
        <mxCell id="nZ4nalmmB0AYQeb8z7_N-4" value="&lt;font style=&quot;font-size: 12px;&quot;&gt;Init/Create/Update/Get&lt;/font&gt;" style="edgeLabel;html=1;align=center;verticalAlign=middle;resizable=0;points=[];fontSize=15;fontFamily=Comic Sans MS;" vertex="1" connectable="0" parent="nZ4nalmmB0AYQeb8z7_N-3">
          <mxGeometry x="-0.1275" y="1" relative="1" as="geometry">
            <mxPoint x="-26" y="-59" as="offset" />
          </mxGeometry>
        </mxCell>
        <mxCell id="nZ4nalmmB0AYQeb8z7_N-5" style="edgeStyle=none;rounded=0;sketch=1;orthogonalLoop=1;jettySize=auto;html=1;entryX=0.5;entryY=0;entryDx=0;entryDy=0;fontFamily=Comic Sans MS;" edge="1" parent="1" source="nZ4nalmmB0AYQeb8z7_N-7" target="ZwwiG4UrAsg6eFqBQfwf-1">
          <mxGeometry relative="1" as="geometry" />
        </mxCell>
        <mxCell id="nZ4nalmmB0AYQeb8z7_N-6" value="Query" style="edgeLabel;html=1;align=center;verticalAlign=middle;resizable=0;points=[];fontSize=12;fontFamily=Comic Sans MS;" vertex="1" connectable="0" parent="nZ4nalmmB0AYQeb8z7_N-5">
          <mxGeometry x="-0.2362" y="-3" relative="1" as="geometry">
            <mxPoint as="offset" />
          </mxGeometry>
        </mxCell>
        <mxCell id="nZ4nalmmB0AYQeb8z7_N-7" value="&lt;font face=&quot;Comic Sans MS&quot;&gt;Backoffice&lt;/font&gt;" style="rounded=1;whiteSpace=wrap;html=1;sketch=1;fillColor=#fff2cc;strokeColor=#d6b656;fillStyle=solid;" vertex="1" parent="1">
          <mxGeometry x="179.1" y="330" width="120" height="60" as="geometry" />
        </mxCell>
        <mxCell id="nZ4nalmmB0AYQeb8z7_N-8" value="" style="shape=image;html=1;verticalAlign=top;verticalLabelPosition=bottom;labelBackgroundColor=#ffffff;imageAspect=0;aspect=fixed;image=https://cdn4.iconfinder.com/data/icons/logos-and-brands/512/97_Docker_logo_logos-128.png;dashed=1;fillColor=none;" vertex="1" parent="1">
          <mxGeometry x="179.1" y="294.9" width="35.09852024922119" height="35.09852024922119" as="geometry" />
        </mxCell>
        <mxCell id="nZ4nalmmB0AYQeb8z7_N-9" style="edgeStyle=none;rounded=0;sketch=1;orthogonalLoop=1;jettySize=auto;html=1;fontFamily=Comic Sans MS;" edge="1" parent="1" source="nZ4nalmmB0AYQeb8z7_N-13">
          <mxGeometry relative="1" as="geometry">
            <mxPoint x="954" y="940" as="targetPoint" />
          </mxGeometry>
        </mxCell>
        <mxCell id="nZ4nalmmB0AYQeb8z7_N-10" value="CRUD" style="edgeLabel;html=1;align=center;verticalAlign=middle;resizable=0;points=[];fontSize=12;fontFamily=Comic Sans MS;" vertex="1" connectable="0" parent="nZ4nalmmB0AYQeb8z7_N-9">
          <mxGeometry x="-0.2531" y="1" relative="1" as="geometry">
            <mxPoint as="offset" />
          </mxGeometry>
        </mxCell>
        <mxCell id="nZ4nalmmB0AYQeb8z7_N-11" style="rounded=0;sketch=1;orthogonalLoop=1;jettySize=auto;html=1;fontFamily=Comic Sans MS;entryX=0.5;entryY=0;entryDx=0;entryDy=0;entryPerimeter=0;" edge="1" parent="1" source="nZ4nalmmB0AYQeb8z7_N-13" target="nZ4nalmmB0AYQeb8z7_N-22">
          <mxGeometry relative="1" as="geometry">
            <mxPoint x="444" y="740" as="targetPoint" />
          </mxGeometry>
        </mxCell>
        <mxCell id="nZ4nalmmB0AYQeb8z7_N-12" value="&lt;strike&gt;Update/&lt;/strike&gt;Get" style="edgeLabel;html=1;align=center;verticalAlign=middle;resizable=0;points=[];fontSize=12;fontFamily=Comic Sans MS;" vertex="1" connectable="0" parent="nZ4nalmmB0AYQeb8z7_N-11">
          <mxGeometry x="0.0012" y="-80" relative="1" as="geometry">
            <mxPoint x="8" y="124" as="offset" />
          </mxGeometry>
        </mxCell>
        <mxCell id="nZ4nalmmB0AYQeb8z7_N-13" value="&lt;font face=&quot;Comic Sans MS&quot;&gt;Core Biz Service&lt;/font&gt;" style="rounded=1;whiteSpace=wrap;html=1;sketch=1;fillColor=#ffcccc;strokeColor=#36393d;fillStyle=solid;" vertex="1" parent="1">
          <mxGeometry x="704" y="545.1" width="120" height="60" as="geometry" />
        </mxCell>
        <mxCell id="nZ4nalmmB0AYQeb8z7_N-14" value="" style="shape=image;html=1;verticalAlign=top;verticalLabelPosition=bottom;labelBackgroundColor=#ffffff;imageAspect=0;aspect=fixed;image=https://cdn4.iconfinder.com/data/icons/logos-and-brands/512/97_Docker_logo_logos-128.png;dashed=1;fillColor=none;" vertex="1" parent="1">
          <mxGeometry x="704" y="510" width="35.09852024922119" height="35.09852024922119" as="geometry" />
        </mxCell>
        <mxCell id="nZ4nalmmB0AYQeb8z7_N-15" style="edgeStyle=none;rounded=0;sketch=1;orthogonalLoop=1;jettySize=auto;html=1;entryX=0.5;entryY=0;entryDx=0;entryDy=0;fontFamily=Comic Sans MS;" edge="1" parent="1" source="nZ4nalmmB0AYQeb8z7_N-19" target="nZ4nalmmB0AYQeb8z7_N-13">
          <mxGeometry relative="1" as="geometry" />
        </mxCell>
        <mxCell id="nZ4nalmmB0AYQeb8z7_N-16" value="Query/Create/Update" style="edgeLabel;html=1;align=center;verticalAlign=middle;resizable=0;points=[];fontSize=12;fontFamily=Comic Sans MS;" vertex="1" connectable="0" parent="nZ4nalmmB0AYQeb8z7_N-15">
          <mxGeometry x="-0.5056" y="2" relative="1" as="geometry">
            <mxPoint as="offset" />
          </mxGeometry>
        </mxCell>
        <mxCell id="nZ4nalmmB0AYQeb8z7_N-17" style="edgeStyle=none;rounded=0;sketch=1;orthogonalLoop=1;jettySize=auto;html=1;fontFamily=Comic Sans MS;entryX=0.5;entryY=0;entryDx=0;entryDy=0;entryPerimeter=0;strokeColor=default;" edge="1" parent="1" source="nZ4nalmmB0AYQeb8z7_N-19" target="nZ4nalmmB0AYQeb8z7_N-21">
          <mxGeometry relative="1" as="geometry">
            <mxPoint x="704" y="890" as="targetPoint" />
          </mxGeometry>
        </mxCell>
        <mxCell id="nZ4nalmmB0AYQeb8z7_N-18" value="CRUD" style="edgeLabel;html=1;align=center;verticalAlign=middle;resizable=0;points=[];fontSize=12;fontFamily=Comic Sans MS;" vertex="1" connectable="0" parent="nZ4nalmmB0AYQeb8z7_N-17">
          <mxGeometry x="-0.1498" y="-2" relative="1" as="geometry">
            <mxPoint as="offset" />
          </mxGeometry>
        </mxCell>
        <mxCell id="nZ4nalmmB0AYQeb8z7_N-19" value="&lt;font face=&quot;Comic Sans MS&quot;&gt;User Service&lt;/font&gt;" style="rounded=1;whiteSpace=wrap;html=1;sketch=1;fillColor=#fad7ac;strokeColor=#b46504;fillStyle=solid;" vertex="1" parent="1">
          <mxGeometry x="340" y="330" width="120" height="60" as="geometry" />
        </mxCell>
        <mxCell id="nZ4nalmmB0AYQeb8z7_N-20" value="" style="shape=image;html=1;verticalAlign=top;verticalLabelPosition=bottom;labelBackgroundColor=#ffffff;imageAspect=0;aspect=fixed;image=https://cdn4.iconfinder.com/data/icons/logos-and-brands/512/97_Docker_logo_logos-128.png;dashed=1;fillColor=none;" vertex="1" parent="1">
          <mxGeometry x="340" y="294.9" width="35.09852024922119" height="35.09852024922119" as="geometry" />
        </mxCell>
        <mxCell id="nZ4nalmmB0AYQeb8z7_N-21" value="" style="outlineConnect=0;dashed=0;verticalLabelPosition=bottom;verticalAlign=top;align=center;html=1;shape=mxgraph.aws3.rds;fillColor=#2E73B8;gradientColor=none;" vertex="1" parent="1">
          <mxGeometry x="924" y="940" width="67" height="75" as="geometry" />
        </mxCell>
        <mxCell id="nZ4nalmmB0AYQeb8z7_N-22" value="" style="outlineConnect=0;dashed=0;verticalLabelPosition=bottom;verticalAlign=top;align=center;html=1;shape=mxgraph.aws3.elasticsearch_service;fillColor=#F58534;gradientColor=none;" vertex="1" parent="1">
          <mxGeometry x="544.2" y="940" width="67.5" height="81" as="geometry" />
        </mxCell>
        <mxCell id="nZ4nalmmB0AYQeb8z7_N-23" value="&lt;font face=&quot;Comic Sans MS&quot;&gt;RDS&lt;/font&gt;" style="text;html=1;align=center;verticalAlign=middle;resizable=0;points=[];autosize=1;strokeColor=none;" vertex="1" parent="1">
          <mxGeometry x="932.5" y="1015" width="50" height="30" as="geometry" />
        </mxCell>
        <mxCell id="nZ4nalmmB0AYQeb8z7_N-24" value="&lt;font face=&quot;Comic Sans MS&quot;&gt;ES&lt;/font&gt;" style="text;html=1;align=center;verticalAlign=middle;resizable=0;points=[];autosize=1;strokeColor=none;" vertex="1" parent="1">
          <mxGeometry x="557.95" y="1022" width="40" height="30" as="geometry" />
        </mxCell>
        <mxCell id="nZ4nalmmB0AYQeb8z7_N-25" style="edgeStyle=none;rounded=0;sketch=1;orthogonalLoop=1;jettySize=auto;html=1;fontFamily=Comic Sans MS;entryX=0.5;entryY=0;entryDx=0;entryDy=0;" edge="1" parent="1" source="nZ4nalmmB0AYQeb8z7_N-27" target="nZ4nalmmB0AYQeb8z7_N-13">
          <mxGeometry relative="1" as="geometry">
            <mxPoint x="764" y="540" as="targetPoint" />
          </mxGeometry>
        </mxCell>
        <mxCell id="nZ4nalmmB0AYQeb8z7_N-26" value="Query/Create/Update" style="edgeLabel;html=1;align=center;verticalAlign=middle;resizable=0;points=[];fontSize=12;fontFamily=Comic Sans MS;" vertex="1" connectable="0" parent="nZ4nalmmB0AYQeb8z7_N-25">
          <mxGeometry x="-0.4852" y="4" relative="1" as="geometry">
            <mxPoint x="19" y="-17" as="offset" />
          </mxGeometry>
        </mxCell>
        <mxCell id="nZ4nalmmB0AYQeb8z7_N-27" value="&lt;font face=&quot;Comic Sans MS&quot;&gt;Console Service&lt;/font&gt;" style="rounded=1;whiteSpace=wrap;html=1;sketch=1;fillColor=#fff2cc;strokeColor=#d6b656;fillStyle=solid;" vertex="1" parent="1">
          <mxGeometry x="504" y="330" width="120" height="60" as="geometry" />
        </mxCell>
        <mxCell id="nZ4nalmmB0AYQeb8z7_N-28" value="" style="shape=image;html=1;verticalAlign=top;verticalLabelPosition=bottom;labelBackgroundColor=#ffffff;imageAspect=0;aspect=fixed;image=https://cdn4.iconfinder.com/data/icons/logos-and-brands/512/97_Docker_logo_logos-128.png;dashed=1;fillColor=none;" vertex="1" parent="1">
          <mxGeometry x="504" y="294.9" width="35.09852024922119" height="35.09852024922119" as="geometry" />
        </mxCell>
        <mxCell id="nZ4nalmmB0AYQeb8z7_N-29" style="edgeStyle=none;rounded=0;sketch=1;orthogonalLoop=1;jettySize=auto;html=1;entryX=0.5;entryY=0;entryDx=0;entryDy=0;fontFamily=Comic Sans MS;fontSize=15;" edge="1" parent="1" source="nZ4nalmmB0AYQeb8z7_N-31" target="nZ4nalmmB0AYQeb8z7_N-13">
          <mxGeometry relative="1" as="geometry" />
        </mxCell>
        <mxCell id="nZ4nalmmB0AYQeb8z7_N-30" value="Query" style="edgeLabel;html=1;align=center;verticalAlign=middle;resizable=0;points=[];fontSize=12;fontFamily=Comic Sans MS;" vertex="1" connectable="0" parent="nZ4nalmmB0AYQeb8z7_N-29">
          <mxGeometry x="-0.344" y="-2" relative="1" as="geometry">
            <mxPoint as="offset" />
          </mxGeometry>
        </mxCell>
        <mxCell id="nZ4nalmmB0AYQeb8z7_N-31" value="&lt;font face=&quot;Comic Sans MS&quot;&gt;Analytics Service&lt;/font&gt;" style="rounded=1;whiteSpace=wrap;html=1;sketch=1;fillColor=#dae8fc;strokeColor=#6c8ebf;fillStyle=solid;" vertex="1" parent="1">
          <mxGeometry x="864" y="330" width="120" height="60" as="geometry" />
        </mxCell>
        <mxCell id="nZ4nalmmB0AYQeb8z7_N-32" value="" style="shape=image;html=1;verticalAlign=top;verticalLabelPosition=bottom;labelBackgroundColor=#ffffff;imageAspect=0;aspect=fixed;image=https://cdn4.iconfinder.com/data/icons/logos-and-brands/512/97_Docker_logo_logos-128.png;dashed=1;fillColor=none;" vertex="1" parent="1">
          <mxGeometry x="864" y="294.9" width="35.09852024922119" height="35.09852024922119" as="geometry" />
        </mxCell>
        <mxCell id="nZ4nalmmB0AYQeb8z7_N-33" style="edgeStyle=none;rounded=0;sketch=1;orthogonalLoop=1;jettySize=auto;html=1;fontFamily=Comic Sans MS;fontSize=15;" edge="1" parent="1" source="nZ4nalmmB0AYQeb8z7_N-35">
          <mxGeometry relative="1" as="geometry">
            <mxPoint x="774" y="540" as="targetPoint" />
          </mxGeometry>
        </mxCell>
        <mxCell id="nZ4nalmmB0AYQeb8z7_N-34" value="Query" style="edgeLabel;html=1;align=center;verticalAlign=middle;resizable=0;points=[];fontSize=12;fontFamily=Comic Sans MS;" vertex="1" connectable="0" parent="nZ4nalmmB0AYQeb8z7_N-33">
          <mxGeometry x="-0.2558" relative="1" as="geometry">
            <mxPoint y="-1" as="offset" />
          </mxGeometry>
        </mxCell>
        <mxCell id="nZ4nalmmB0AYQeb8z7_N-35" value="&lt;font face=&quot;Comic Sans MS&quot;&gt;Eureka Service&lt;/font&gt;" style="rounded=1;whiteSpace=wrap;html=1;sketch=1;fillColor=#dae8fc;strokeColor=#6c8ebf;fillStyle=solid;" vertex="1" parent="1">
          <mxGeometry x="1044" y="330" width="120" height="60" as="geometry" />
        </mxCell>
        <mxCell id="nZ4nalmmB0AYQeb8z7_N-36" value="" style="shape=image;html=1;verticalAlign=top;verticalLabelPosition=bottom;labelBackgroundColor=#ffffff;imageAspect=0;aspect=fixed;image=https://cdn4.iconfinder.com/data/icons/logos-and-brands/512/97_Docker_logo_logos-128.png;dashed=1;fillColor=none;" vertex="1" parent="1">
          <mxGeometry x="1044" y="294.9" width="35.09852024922119" height="35.09852024922119" as="geometry" />
        </mxCell>
        <mxCell id="nZ4nalmmB0AYQeb8z7_N-37" value="&lt;font style=&quot;font-size: 15px;&quot;&gt;...&lt;/font&gt;" style="text;html=1;align=center;verticalAlign=middle;resizable=0;points=[];autosize=1;strokeColor=none;fillColor=none;fontFamily=Comic Sans MS;sketch=1;" vertex="1" parent="1">
          <mxGeometry x="1194" y="345" width="30" height="30" as="geometry" />
        </mxCell>
        <mxCell id="nZ4nalmmB0AYQeb8z7_N-38" style="edgeStyle=none;rounded=0;sketch=1;orthogonalLoop=1;jettySize=auto;html=1;fontFamily=Comic Sans MS;fontSize=15;" edge="1" parent="1" source="nZ4nalmmB0AYQeb8z7_N-40">
          <mxGeometry relative="1" as="geometry">
            <mxPoint x="794" y="540" as="targetPoint" />
          </mxGeometry>
        </mxCell>
        <mxCell id="nZ4nalmmB0AYQeb8z7_N-39" value="Query" style="edgeLabel;html=1;align=center;verticalAlign=middle;resizable=0;points=[];fontSize=12;fontFamily=Comic Sans MS;" vertex="1" connectable="0" parent="nZ4nalmmB0AYQeb8z7_N-38">
          <mxGeometry x="0.1342" y="-4" relative="1" as="geometry">
            <mxPoint as="offset" />
          </mxGeometry>
        </mxCell>
        <mxCell id="nZ4nalmmB0AYQeb8z7_N-40" value="&lt;font face=&quot;Comic Sans MS&quot;&gt;Discovery Service&lt;/font&gt;" style="rounded=1;whiteSpace=wrap;html=1;sketch=1;fillColor=#dae8fc;strokeColor=#6c8ebf;fillStyle=solid;" vertex="1" parent="1">
          <mxGeometry x="1249" y="330" width="120" height="60" as="geometry" />
        </mxCell>
        <mxCell id="nZ4nalmmB0AYQeb8z7_N-41" value="" style="shape=image;html=1;verticalAlign=top;verticalLabelPosition=bottom;labelBackgroundColor=#ffffff;imageAspect=0;aspect=fixed;image=https://cdn4.iconfinder.com/data/icons/logos-and-brands/512/97_Docker_logo_logos-128.png;dashed=1;fillColor=none;" vertex="1" parent="1">
          <mxGeometry x="1249" y="294.9" width="35.09852024922119" height="35.09852024922119" as="geometry" />
        </mxCell>
        <mxCell id="nZ4nalmmB0AYQeb8z7_N-42" style="edgeStyle=none;rounded=0;sketch=1;orthogonalLoop=1;jettySize=auto;html=1;entryX=1;entryY=0;entryDx=0;entryDy=0;fontFamily=Comic Sans MS;fontSize=15;" edge="1" parent="1" source="nZ4nalmmB0AYQeb8z7_N-44" target="nZ4nalmmB0AYQeb8z7_N-13">
          <mxGeometry relative="1" as="geometry" />
        </mxCell>
        <mxCell id="nZ4nalmmB0AYQeb8z7_N-43" value="Query" style="edgeLabel;html=1;align=center;verticalAlign=middle;resizable=0;points=[];fontSize=12;fontFamily=Comic Sans MS;" vertex="1" connectable="0" parent="nZ4nalmmB0AYQeb8z7_N-42">
          <mxGeometry x="0.2213" y="-2" relative="1" as="geometry">
            <mxPoint as="offset" />
          </mxGeometry>
        </mxCell>
        <mxCell id="nZ4nalmmB0AYQeb8z7_N-44" value="&lt;font face=&quot;Comic Sans MS&quot;&gt;Pharmsnap Service&lt;/font&gt;" style="rounded=1;whiteSpace=wrap;html=1;sketch=1;fillColor=#dae8fc;strokeColor=#6c8ebf;fillStyle=solid;" vertex="1" parent="1">
          <mxGeometry x="1434" y="332.55" width="120" height="60" as="geometry" />
        </mxCell>
        <mxCell id="nZ4nalmmB0AYQeb8z7_N-45" value="" style="shape=image;html=1;verticalAlign=top;verticalLabelPosition=bottom;labelBackgroundColor=#ffffff;imageAspect=0;aspect=fixed;image=https://cdn4.iconfinder.com/data/icons/logos-and-brands/512/97_Docker_logo_logos-128.png;dashed=1;fillColor=none;" vertex="1" parent="1">
          <mxGeometry x="1434" y="297.45" width="35.09852024922119" height="35.09852024922119" as="geometry" />
        </mxCell>
        <mxCell id="nZ4nalmmB0AYQeb8z7_N-46" style="rounded=0;sketch=1;orthogonalLoop=1;jettySize=auto;html=1;fontFamily=Comic Sans MS;fontSize=12;entryX=0.25;entryY=0;entryDx=0;entryDy=0;" edge="1" parent="1" source="nZ4nalmmB0AYQeb8z7_N-48" target="ZwwiG4UrAsg6eFqBQfwf-1">
          <mxGeometry relative="1" as="geometry">
            <mxPoint x="764" y="540" as="targetPoint" />
          </mxGeometry>
        </mxCell>
        <mxCell id="nZ4nalmmB0AYQeb8z7_N-47" value="Query/Create/Update" style="edgeLabel;html=1;align=center;verticalAlign=middle;resizable=0;points=[];fontSize=12;fontFamily=Comic Sans MS;" vertex="1" connectable="0" parent="nZ4nalmmB0AYQeb8z7_N-46">
          <mxGeometry x="-0.3777" y="3" relative="1" as="geometry">
            <mxPoint as="offset" />
          </mxGeometry>
        </mxCell>
        <mxCell id="nZ4nalmmB0AYQeb8z7_N-48" value="&lt;font face=&quot;Comic Sans MS&quot;&gt;Passport&lt;/font&gt;" style="rounded=1;whiteSpace=wrap;html=1;sketch=1;fillColor=#ffcc99;strokeColor=#36393d;fillStyle=solid;" vertex="1" parent="1">
          <mxGeometry x="20" y="330" width="120" height="60" as="geometry" />
        </mxCell>
        <mxCell id="nZ4nalmmB0AYQeb8z7_N-49" value="" style="shape=image;html=1;verticalAlign=top;verticalLabelPosition=bottom;labelBackgroundColor=#ffffff;imageAspect=0;aspect=fixed;image=https://cdn4.iconfinder.com/data/icons/logos-and-brands/512/97_Docker_logo_logos-128.png;dashed=1;fillColor=none;" vertex="1" parent="1">
          <mxGeometry x="20" y="294.9" width="35.09852024922119" height="35.09852024922119" as="geometry" />
        </mxCell>
        <mxCell id="nZ4nalmmB0AYQeb8z7_N-50" value="" style="shape=image;verticalLabelPosition=bottom;labelBackgroundColor=#ffffff;verticalAlign=top;aspect=fixed;imageAspect=0;image=data:image/png,iVBORw0KGgoAAAANSUhEUgAAAZAAAAGQCAMAAAC3Ycb+AAACLlBMVEVMaXFBuINBuIM8enI/nnxBuINBuINBuIM8enJBuIM8enJBuINBuINBuIM8enJBuIM8enJBuINBuIM7eXFBuINBuIM8eXFBuINBuIM8eHFBuIM8eXFBuIM8eHBBuIM8eHBBuIM8d3BBuINBuIM8d3BBuINBuINBuIM8dnBBuINBuIM8dnBBuINBuIM7dXBBuINBuIM8dG9BuINBuIM8dG9BuIM8dG9BuINBuIM8c29BuINBuIM7cm5BuINBuIM7cW5BuIM7cW9BuINBuINBuIM7cW5BuINBuINBuIM7b21BuINBuIM6b21BuIM7bm1BuINBuIM7bW1BuINBuIM6bGxBuINBuIM6a2xBuIM6a2xBuINBuIM6amxBuIM6aWtBuINBuIM6aGpBuINBuIM6ZmpBuINBuIM5ZGlBuIM5Y2lBuINBuIM5YWhBuINBuIM5YGdBuIM4XmdBuINBuIM4XGZBuINBuIM4WmVBuIM3WGRBuIM3V2RBuINBuIM3VGNBuIM2UmI2UGFBuIM1TWA1SV41Sl41S141TF81TWA2T2A2UWE2U2I3VWM3WGQ4W2U4Xmc5YGc5YWg5ZGk6Zmo6Z2o6aGo6a2w7bW07bm07cG48c287dnA7eHA8enI8fHI9fnM8gXM9g3Q9hnU9iXY+i3c+jHc+j3g+kXk+lHo/l3o/mXs+m3s/nnw/oH0/o31Apn5BqH5Aqn9BrH9BroBBr4BCsYBBs4FBtoJCt4JBuIP7mHZoAAAAhHRSTlMAAQICAwQHCAgLDQ4QEhIVFhcaGh4hIiUoKissLzEzNDc4Oj4/QERFRkhLTVBTVldaXV5iYmZnaW1vcHV3eHx8gIGDhIeJio+Sk5aZm52foaWmqKyusLS1t7m6u7y/wMLHx8zP0NPW1trc3uLi5Obn6urt7+/y8/T29vf4+vv7/P39/v7L5yYnAAAKeElEQVR42uzBgQAAAADDoPtTH2TVAAAAAAAAAAAAAMg6NfegXmu6BVG4tm3btm3btm1bM3bOtm17Xt1pu5OlkfT3v7cxnqp1zio0SFovlZleaQYp/O6odWp90VGv0wxyWGXmsEHSXjvqYmtplrNuGGWKysgUo9xw1ixJ9Q456kOWQc7WVJmoedYgWR8cdaieJI101gOjrFCZWGGU+84aqZ9U2eqob3kGudRG4rW5ZJC8b47aWkU/6+Gs50bZIfF2GOW5s3roV0ud9T+jDBZusFGKnbVUv2l22lFv0w1yrJJglY4ZJP2to0430++mOuuWUWYLNtsot5w1VX+otd9Rn3MMcr6RUI3OGyT7s6P219KfDHLWI6NsEGqDUR45a5D+rOJGR33LN0hGZ4E6Zxgk/5ujNlbUX3R01kuj7BNon1FeOquj/ma+s64aZbQwo41y1Vnz9XcNjzvqfaZBTlUXpPopg2S+d9TxhvqHsc66a5TFgiw2yl1njdU/VdvpqK+5BslqKkTTLIPkfnHUzmr6F32c9dQo24TYZpSnzuqjf7XGWUUGSesrQN80gxQ5a43+XetzjnoTVs0Nttuea60SzIx+zY1it52pktSBa+5HrubWVYrqct32I9xt66hEw4OtuauVotVGeeCs4SpZuDU3s51S0i4z1G67pYpK0S3YmrtbKdkdbLftqlItcdZlowxVCoYa5bKzlqh0TeCa+y7DICeqKGlVThgk4x3cbZsohsnOum2UuUraXKPcdtZkxVJrL1xzsw1yoZGS1OhCqN12bw3FNDA6NTf63XagYquw3lHfCwyS3l1J6Z5ukILvjlpfQXFo76xXRjmgpBwwyitntVdc5jnrmlHGKQnjjHLNWfMUn4ZHAxgoADWX7rZZcLc92lBxGuOse3zN/S+67T1njVG8qoZbc1soQS24bvsV7rZVFbfeznrG19zod9veSsAqZxXzNbe8u22xs1YqES3DrbmVlIBKXLd9A3fblkrIdGfdNMoMJWCGUW46a7oSU+egoz5lG+R8XcWtLjc++OSog3WUoGHB1ty1itvaYLvtMCWqypZgBwodFKcOwY4PtlRWwro460X519zdRnnhrC5KwiJnXTHKCMVlhFGuOGuRktHkZLRrbrjd9mQTJWWSs+4YZYHisCDYbjtRyamxx1FfcrCa21QxNcW6bc4XR+2poST1d9Zjo2xWTJuN8thZ/ZW44GtuL8XQK+Rum7S2wd7NHSi3bpsGd9uLbZWCOc66bpQJKtUEo1x31hylosGRaN7NhXsad6SBUjLKWfeNskylWBZstx2l1FTdDtfcPINktVKJWmUZJA/utturKkU9g625O8rjNO6Zs3oqZcuDrbkDVIIBwXbb5Upd8zNRu5sL9zTuTHMBpgV7Nzcjat12mgi19wdbc+vrX9QPttvuryXEEGc9LNuBwgajPHTWEDEqborS3Vy4p3GbKgrSKUp3c7uDPY3rJMzCYO/mRkSn2y4Up/FxuubSAwV+fEB32+ONBRoffs2lu+0dZ40XqdouR32B7+bCP43bVU2ofs56wtdctts+cVY/sX5g7w4wAoECKIoaALPuwRACIZIgEATR7trEw/ndf7fxeOcPjof52Nc4Hg/zsa9tPB7mY1/bfDzMx76m+XiYj31t8/EwH/ua5uNhPva1zMfDfOxrmY+H+djXNB8POwP7WjfHw3Zrro99TfPxMB/7mubjYT72tc3Hw3zsa5uPh/nY1zQfD/Oxr20+HuZjX9N8PMzHvrb5eJiPfU3z8TAf+9rm42E+9rXNx8N87Guaj4f52Nc2Hw/zsa/AmtvabX08zMe+9vl4mI997fPxMB/7muXjYT72NcjHw1jsa7/bHoyH+djXPvpuzj+N2+bjYT72tc3Hw3zsa5qPh/nY1zYfD/Oxr2k+HuZjX9t8PMzHvqb5eJiPfW3z8TAf+9rm42E+9jXKx8N87GuQj4f52NcgHw/zsa9BPh4GY19AAB7mYF9AAB4GYV9AAB7mYF9AAB4GYV9AAB6GY193zQ3sthIeBmNfQAAe5mBfQAAeBmFfQAAe5mBfQAAeBmFfQAAe5mBfQAAe5mBfQAAeBmFfQAAe5mBfQAAeBmFfQAAe5mBfQAAeBmFfQAAe5mBfQAAe5mBfQAAeBmFfQAAe5mBfQAAeBmFfQAAepmNfg3w8bNDjN459hfCwM7CvEh52AvaVwsNOwb58PGzWG4V93bs5/zSuhYf52FcLD/Oxrxge5mNfLTzMx75ieJiPfbXwMB/7iuFhPvbVwsN87KuFh/nYVwwP87GvFh7mY18xPOzhy8e+UniYj3218DAf+2rhYT72FcPDfOyrhYf52FcAD0Owr7vm3t3Wx8N87KuFh/nYVwsP87GvGB7mY18tPMzHvgJ4mIt93bs5/zQuhof52FcLD/OxrxYe9v/Tx75SeJiPfbXwMB/7+j142HsO+/LxsBj25eNhNezLx8Ni2JePh9WwLx8Pi2FfPh5Ww758PKyGffl4WAz78vGw87GvCB724mNfATwsgH35eJiGfd019+62Ph7278PHvlJ4mI99ZfCwAPbl42GvNezLx8Nq2JePh9WwLx8Pi2FfPh7Wwr58POzZxr78/u7xsBj25eNhMezLx8Ni2JePhx2IfQXwsCcf+0rhYT72FcPDfOyrhYf52FcMD8OxL781HuZjXzE8zMe+aniYj33F8DAf+yrhYRj2de/m7mmciIf52FcND/Oxrxge5mNfDTwMw77umnt3WxcP87GvGB7mY181PMzHvkp4mI99BfCwn/bu6UoSAACi6CqPtW2NbZtxdnaTRON93JdGnVMX9tXCw2BfMTwM9tXCw2BfLTwM9hXDw2BfLTwM9hXDw2BfUTwM9pVec+22Q+jVYAjFsC94WAv7gofFsC94WAv7gofFsC94WAD7cjfnNK6Ch8G+WngY7CuGh8G+WngY7CuJh/WxL3gY7GvYXQyGUAD7gofBvgJ4GOyrhof1sS94GOxr2D0aAh4WwL7gYbCvBh7Wx77gYbCvYbcwGEIB7AseFsC+4GGwr8Caa7dt4GGwrxYeBvuK4WGwrxYeBvuK4WGwrxYeBvtq4WGwrxgeBvuq4WGwr8DdnNO4Kh4G+4rhYbCvFh4G+2rhYbCvHh7Wx77gYX3sCx7Wx77gYbCvYXcL+6rhYS3sS5uwrzAeFsC+9K+Gfbmba53G6W0M+9IJ7KuGh7WwL63UsC9rbmu31XfYVw0Pa2FfehbDvrRXw77gYS3sSzM17Ase1sK+9DGGfem6hn3Bw1rYlzZq2Bc8rIV96U8Y+7Lm2m0DvYphXzquYV/wsBb2paUa9gUPa2Ff+hbGvtzNOY0L9AT2FWsX9hXGw2BfgaZhX2E8DPYV6APsK9YF7CuMh8G+Aq3BvsJ4GOwr0G/YVxgPg30Fegn7inUI+wrjYbCvQAuwrzAeBvsK9AX21V9z7bYZPAz2FWgb9hXGw2Bfgf7DvsJ4GOwr0DvYV6wz2FcXD4N9FVqFfVXv5pzGNfrZxL7gYbCvSs9hX7EOetgXPAz2VWquhn3Bw2BfrT7DviRJkiRJkiRJkiRJkiRJkiQNszucKAuToL+DiQAAAABJRU5ErkJggg==;" vertex="1" parent="1">
          <mxGeometry x="271.85" y="330.0000000000001" width="30" height="30" as="geometry" />
        </mxCell>
        <mxCell id="nZ4nalmmB0AYQeb8z7_N-51" value="" style="shape=image;verticalLabelPosition=bottom;labelBackgroundColor=#ffffff;verticalAlign=top;aspect=fixed;imageAspect=0;image=data:image/png,iVBORw0KGgoAAAANSUhEUgAAAZAAAAGQCAMAAAC3Ycb+AAACLlBMVEVMaXFBuINBuIM8enI/nnxBuINBuINBuIM8enJBuIM8enJBuINBuINBuIM8enJBuIM8enJBuINBuIM7eXFBuINBuIM8eXFBuINBuIM8eHFBuIM8eXFBuIM8eHBBuIM8eHBBuIM8d3BBuINBuIM8d3BBuINBuINBuIM8dnBBuINBuIM8dnBBuINBuIM7dXBBuINBuIM8dG9BuINBuIM8dG9BuIM8dG9BuINBuIM8c29BuINBuIM7cm5BuINBuIM7cW5BuIM7cW9BuINBuINBuIM7cW5BuINBuINBuIM7b21BuINBuIM6b21BuIM7bm1BuINBuIM7bW1BuINBuIM6bGxBuINBuIM6a2xBuIM6a2xBuINBuIM6amxBuIM6aWtBuINBuIM6aGpBuINBuIM6ZmpBuINBuIM5ZGlBuIM5Y2lBuINBuIM5YWhBuINBuIM5YGdBuIM4XmdBuINBuIM4XGZBuINBuIM4WmVBuIM3WGRBuIM3V2RBuINBuIM3VGNBuIM2UmI2UGFBuIM1TWA1SV41Sl41S141TF81TWA2T2A2UWE2U2I3VWM3WGQ4W2U4Xmc5YGc5YWg5ZGk6Zmo6Z2o6aGo6a2w7bW07bm07cG48c287dnA7eHA8enI8fHI9fnM8gXM9g3Q9hnU9iXY+i3c+jHc+j3g+kXk+lHo/l3o/mXs+m3s/nnw/oH0/o31Apn5BqH5Aqn9BrH9BroBBr4BCsYBBs4FBtoJCt4JBuIP7mHZoAAAAhHRSTlMAAQICAwQHCAgLDQ4QEhIVFhcaGh4hIiUoKissLzEzNDc4Oj4/QERFRkhLTVBTVldaXV5iYmZnaW1vcHV3eHx8gIGDhIeJio+Sk5aZm52foaWmqKyusLS1t7m6u7y/wMLHx8zP0NPW1trc3uLi5Obn6urt7+/y8/T29vf4+vv7/P39/v7L5yYnAAAKeElEQVR42uzBgQAAAADDoPtTH2TVAAAAAAAAAAAAAMg6NfegXmu6BVG4tm3btm3btm1bM3bOtm17Xt1pu5OlkfT3v7cxnqp1zio0SFovlZleaQYp/O6odWp90VGv0wxyWGXmsEHSXjvqYmtplrNuGGWKysgUo9xw1ixJ9Q456kOWQc7WVJmoedYgWR8cdaieJI101gOjrFCZWGGU+84aqZ9U2eqob3kGudRG4rW5ZJC8b47aWkU/6+Gs50bZIfF2GOW5s3roV0ud9T+jDBZusFGKnbVUv2l22lFv0w1yrJJglY4ZJP2to0430++mOuuWUWYLNtsot5w1VX+otd9Rn3MMcr6RUI3OGyT7s6P219KfDHLWI6NsEGqDUR45a5D+rOJGR33LN0hGZ4E6Zxgk/5ujNlbUX3R01kuj7BNon1FeOquj/ma+s64aZbQwo41y1Vnz9XcNjzvqfaZBTlUXpPopg2S+d9TxhvqHsc66a5TFgiw2yl1njdU/VdvpqK+5BslqKkTTLIPkfnHUzmr6F32c9dQo24TYZpSnzuqjf7XGWUUGSesrQN80gxQ5a43+XetzjnoTVs0Nttuea60SzIx+zY1it52pktSBa+5HrubWVYrqct32I9xt66hEw4OtuauVotVGeeCs4SpZuDU3s51S0i4z1G67pYpK0S3YmrtbKdkdbLftqlItcdZlowxVCoYa5bKzlqh0TeCa+y7DICeqKGlVThgk4x3cbZsohsnOum2UuUraXKPcdtZkxVJrL1xzsw1yoZGS1OhCqN12bw3FNDA6NTf63XagYquw3lHfCwyS3l1J6Z5ukILvjlpfQXFo76xXRjmgpBwwyitntVdc5jnrmlHGKQnjjHLNWfMUn4ZHAxgoADWX7rZZcLc92lBxGuOse3zN/S+67T1njVG8qoZbc1soQS24bvsV7rZVFbfeznrG19zod9veSsAqZxXzNbe8u22xs1YqES3DrbmVlIBKXLd9A3fblkrIdGfdNMoMJWCGUW46a7oSU+egoz5lG+R8XcWtLjc++OSog3WUoGHB1ty1itvaYLvtMCWqypZgBwodFKcOwY4PtlRWwro460X519zdRnnhrC5KwiJnXTHKCMVlhFGuOGuRktHkZLRrbrjd9mQTJWWSs+4YZYHisCDYbjtRyamxx1FfcrCa21QxNcW6bc4XR+2poST1d9Zjo2xWTJuN8thZ/ZW44GtuL8XQK+Rum7S2wd7NHSi3bpsGd9uLbZWCOc66bpQJKtUEo1x31hylosGRaN7NhXsad6SBUjLKWfeNskylWBZstx2l1FTdDtfcPINktVKJWmUZJA/utturKkU9g625O8rjNO6Zs3oqZcuDrbkDVIIBwXbb5Upd8zNRu5sL9zTuTHMBpgV7Nzcjat12mgi19wdbc+vrX9QPttvuryXEEGc9LNuBwgajPHTWEDEqborS3Vy4p3GbKgrSKUp3c7uDPY3rJMzCYO/mRkSn2y4Up/FxuubSAwV+fEB32+ONBRoffs2lu+0dZ40XqdouR32B7+bCP43bVU2ofs56wtdctts+cVY/sX5g7w4wAoECKIoaALPuwRACIZIgEATR7trEw/ndf7fxeOcPjof52Nc4Hg/zsa9tPB7mY1/bfDzMx76m+XiYj31t8/EwH/ua5uNhPva1zMfDfOxrmY+H+djXNB8POwP7WjfHw3Zrro99TfPxMB/7mubjYT72tc3Hw3zsa5uPh/nY1zQfD/Oxr20+HuZjX9N8PMzHvrb5eJiPfU3z8TAf+9rm42E+9rXNx8N87Guaj4f52Nc2Hw/zsa/AmtvabX08zMe+9vl4mI997fPxMB/7muXjYT72NcjHw1jsa7/bHoyH+djXPvpuzj+N2+bjYT72tc3Hw3zsa5qPh/nY1zYfD/Oxr2k+HuZjX9t8PMzHvqb5eJiPfW3z8TAf+9rm42E+9jXKx8N87GuQj4f52NcgHw/zsa9BPh4GY19AAB7mYF9AAB4GYV9AAB7mYF9AAB4GYV9AAB6GY193zQ3sthIeBmNfQAAe5mBfQAAeBmFfQAAe5mBfQAAeBmFfQAAe5mBfQAAe5mBfQAAeBmFfQAAe5mBfQAAeBmFfQAAe5mBfQAAeBmFfQAAe5mBfQAAe5mBfQAAeBmFfQAAe5mBfQAAeBmFfQAAepmNfg3w8bNDjN459hfCwM7CvEh52AvaVwsNOwb58PGzWG4V93bs5/zSuhYf52FcLD/Oxrxge5mNfLTzMx75ieJiPfbXwMB/7iuFhPvbVwsN87KuFh/nYVwwP87GvFh7mY18xPOzhy8e+UniYj3218DAf+2rhYT72FcPDfOyrhYf52FcAD0Owr7vm3t3Wx8N87KuFh/nYVwsP87GvGB7mY18tPMzHvgJ4mIt93bs5/zQuhof52FcLD/OxrxYe9v/Tx75SeJiPfbXwMB/7+j142HsO+/LxsBj25eNhNezLx8Ni2JePh9WwLx8Pi2FfPh5Ww758PKyGffl4WAz78vGw87GvCB724mNfATwsgH35eJiGfd019+62Ph7278PHvlJ4mI99ZfCwAPbl42GvNezLx8Nq2JePh9WwLx8Pi2FfPh7Wwr58POzZxr78/u7xsBj25eNhMezLx8Ni2JePhx2IfQXwsCcf+0rhYT72FcPDfOyrhYf52FcMD8OxL781HuZjXzE8zMe+aniYj33F8DAf+yrhYRj2de/m7mmciIf52FcND/Oxrxge5mNfDTwMw77umnt3WxcP87GvGB7mY181PMzHvkp4mI99BfCwn/bu6UoSAACi6CqPtW2NbZtxdnaTRON93JdGnVMX9tXCw2BfMTwM9tXCw2BfLTwM9hXDw2BfLTwM9hXDw2BfUTwM9pVec+22Q+jVYAjFsC94WAv7gofFsC94WAv7gofFsC94WAD7cjfnNK6Ch8G+WngY7CuGh8G+WngY7CuJh/WxL3gY7GvYXQyGUAD7gofBvgJ4GOyrhof1sS94GOxr2D0aAh4WwL7gYbCvBh7Wx77gYbCvYbcwGEIB7AseFsC+4GGwr8Caa7dt4GGwrxYeBvuK4WGwrxYeBvuK4WGwrxYeBvtq4WGwrxgeBvuq4WGwr8DdnNO4Kh4G+4rhYbCvFh4G+2rhYbCvHh7Wx77gYX3sCx7Wx77gYbCvYXcL+6rhYS3sS5uwrzAeFsC+9K+Gfbmba53G6W0M+9IJ7KuGh7WwL63UsC9rbmu31XfYVw0Pa2FfehbDvrRXw77gYS3sSzM17Ase1sK+9DGGfem6hn3Bw1rYlzZq2Bc8rIV96U8Y+7Lm2m0DvYphXzquYV/wsBb2paUa9gUPa2Ff+hbGvtzNOY0L9AT2FWsX9hXGw2BfgaZhX2E8DPYV6APsK9YF7CuMh8G+Aq3BvsJ4GOwr0G/YVxgPg30Fegn7inUI+wrjYbCvQAuwrzAeBvsK9AX21V9z7bYZPAz2FWgb9hXGw2Bfgf7DvsJ4GOwr0DvYV6wz2FcXD4N9FVqFfVXv5pzGNfrZxL7gYbCvSs9hX7EOetgXPAz2VWquhn3Bw2BfrT7DviRJkiRJkiRJkiRJkiRJkiQNszucKAuToL+DiQAAAABJRU5ErkJggg==;" vertex="1" parent="1">
          <mxGeometry x="110" y="330.0000000000001" width="30" height="30" as="geometry" />
        </mxCell>
        <mxCell id="nZ4nalmmB0AYQeb8z7_N-52" value="&lt;div&gt;&lt;br&gt;&lt;/div&gt;&lt;ol&gt;&lt;li&gt;Account/Tenant/Authorization info&lt;/li&gt;&lt;li&gt;Console Business：User Management;Group Management;Case-Timer Management&lt;/li&gt;&lt;li&gt;Capacity Management&lt;/li&gt;&lt;li&gt;OpenApi Business&lt;/li&gt;&lt;/ol&gt;" style="shape=note;whiteSpace=wrap;html=1;backgroundOutline=1;darkOpacity=0.05;sketch=1;fontFamily=Comic Sans MS;fontSize=12;align=left;fillColor=#eeeeee;strokeColor=#36393d;fillStyle=solid;" vertex="1" parent="1">
          <mxGeometry x="1064" y="605.1" width="260" height="144.9" as="geometry" />
        </mxCell>
        <mxCell id="nZ4nalmmB0AYQeb8z7_N-53" value="" style="endArrow=none;dashed=1;html=1;rounded=0;sketch=1;fontFamily=Comic Sans MS;fontSize=12;strokeColor=default;entryX=1;entryY=0.75;entryDx=0;entryDy=0;" edge="1" parent="1" source="nZ4nalmmB0AYQeb8z7_N-52" target="nZ4nalmmB0AYQeb8z7_N-13">
          <mxGeometry width="50" height="50" relative="1" as="geometry">
            <mxPoint x="1054" y="690" as="sourcePoint" />
            <mxPoint x="774" y="610" as="targetPoint" />
          </mxGeometry>
        </mxCell>
        <mxCell id="ZwwiG4UrAsg6eFqBQfwf-7" style="edgeStyle=none;rounded=0;sketch=1;orthogonalLoop=1;jettySize=auto;html=1;fontFamily=Comic Sans MS;fontSize=12;strokeColor=default;entryX=0.323;entryY=-0.012;entryDx=0;entryDy=0;entryPerimeter=0;" edge="1" parent="1" source="ZwwiG4UrAsg6eFqBQfwf-1" target="nZ4nalmmB0AYQeb8z7_N-22">
          <mxGeometry relative="1" as="geometry">
            <mxPoint x="570" y="930" as="targetPoint" />
          </mxGeometry>
        </mxCell>
        <mxCell id="ZwwiG4UrAsg6eFqBQfwf-10" value="Update/Get" style="edgeLabel;html=1;align=center;verticalAlign=middle;resizable=0;points=[];fontSize=12;fontFamily=Comic Sans MS;" vertex="1" connectable="0" parent="ZwwiG4UrAsg6eFqBQfwf-7">
          <mxGeometry x="0.1022" y="-4" relative="1" as="geometry">
            <mxPoint as="offset" />
          </mxGeometry>
        </mxCell>
        <mxCell id="ZwwiG4UrAsg6eFqBQfwf-8" style="edgeStyle=none;rounded=0;sketch=1;orthogonalLoop=1;jettySize=auto;html=1;fontFamily=Comic Sans MS;fontSize=12;strokeColor=default;" edge="1" parent="1" source="ZwwiG4UrAsg6eFqBQfwf-1" target="nZ4nalmmB0AYQeb8z7_N-21">
          <mxGeometry relative="1" as="geometry" />
        </mxCell>
        <mxCell id="ZwwiG4UrAsg6eFqBQfwf-9" value="CRUD" style="edgeLabel;html=1;align=center;verticalAlign=middle;resizable=0;points=[];fontSize=12;fontFamily=Comic Sans MS;" vertex="1" connectable="0" parent="ZwwiG4UrAsg6eFqBQfwf-8">
          <mxGeometry x="0.5828" y="5" relative="1" as="geometry">
            <mxPoint as="offset" />
          </mxGeometry>
        </mxCell>
        <mxCell id="ZwwiG4UrAsg6eFqBQfwf-1" value="&lt;font face=&quot;Comic Sans MS&quot;&gt;Identity Service&lt;/font&gt;" style="rounded=1;whiteSpace=wrap;html=1;sketch=1;fillColor=#fa6800;fontColor=#000000;strokeColor=#C73500;fillStyle=solid;" vertex="1" parent="1">
          <mxGeometry x="144" y="545.1" width="120" height="60" as="geometry" />
        </mxCell>
        <mxCell id="ZwwiG4UrAsg6eFqBQfwf-2" value="" style="shape=image;html=1;verticalAlign=top;verticalLabelPosition=bottom;labelBackgroundColor=#ffffff;imageAspect=0;aspect=fixed;image=https://cdn4.iconfinder.com/data/icons/logos-and-brands/512/97_Docker_logo_logos-128.png;dashed=1;fillColor=none;" vertex="1" parent="1">
          <mxGeometry x="144" y="510" width="35.09852024922119" height="35.09852024922119" as="geometry" />
        </mxCell>
        <mxCell id="ZwwiG4UrAsg6eFqBQfwf-4" value="&lt;ol&gt;&lt;li&gt;Authentication&lt;/li&gt;&lt;li&gt;Session Management&lt;/li&gt;&lt;/ol&gt;" style="shape=note;whiteSpace=wrap;html=1;backgroundOutline=1;darkOpacity=0.05;sketch=1;fontFamily=Comic Sans MS;fontSize=12;align=left;fillColor=#eeeeee;strokeColor=#36393d;fillStyle=solid;" vertex="1" parent="1">
          <mxGeometry x="20" y="720" width="160" height="100" as="geometry" />
        </mxCell>
        <mxCell id="ZwwiG4UrAsg6eFqBQfwf-6" value="" style="endArrow=none;dashed=1;html=1;rounded=0;sketch=1;fontFamily=Comic Sans MS;fontSize=12;strokeColor=default;exitX=0.125;exitY=0;exitDx=0;exitDy=0;exitPerimeter=0;entryX=0;entryY=1;entryDx=0;entryDy=0;" edge="1" parent="1" source="ZwwiG4UrAsg6eFqBQfwf-4" target="ZwwiG4UrAsg6eFqBQfwf-1">
          <mxGeometry width="50" height="50" relative="1" as="geometry">
            <mxPoint x="224" y="700" as="sourcePoint" />
            <mxPoint x="244" y="610" as="targetPoint" />
          </mxGeometry>
        </mxCell>
      </root>
    </mxGraphModel>
  </diagram>
</mxfile>
